<?xml version="1.0" standalone="no"?>
<!DOCTYPE svg PUBLIC "-//W3C//DTD SVG 20010904//EN"
 "http://www.w3.org/TR/2001/REC-SVG-20010904/DTD/svg10.dtd">
<svg version="1.0" xmlns="http://www.w3.org/2000/svg"
 width="500.000000pt" height="500.000000pt" viewBox="0 0 500.000000 500.000000"
 preserveAspectRatio="xMidYMid meet">

<g transform="translate(0.000000,500.000000) scale(0.100000,-0.100000)"
fill="#000000" stroke="none">
<path d="M1427 3825 c-22 -7 -50 -24 -64 -37 -55 -50 -53 -21 -53 -933 0 -925
-2 -886 59 -938 67 -56 155 -56 222 0 50 42 59 77 59 222 0 140 7 171 48 214
86 91 219 73 280 -38 15 -26 18 -88 22 -512 5 -467 6 -482 26 -509 40 -55 70
-69 142 -69 81 0 124 25 153 89 18 39 19 84 19 913 0 592 -3 881 -11 900 -23
63 -95 113 -161 113 -48 -1 -112 -33 -139 -71 -21 -30 -25 -48 -29 -164 -5
-113 -9 -136 -28 -167 -73 -118 -246 -109 -303 16 -17 38 -19 73 -19 444 0
441 -1 445 -59 495 -28 23 -88 48 -116 47 -5 -1 -27 -7 -48 -15z"/>
<path d="M2777 3825 c-47 -16 -81 -46 -101 -90 -14 -29 -16 -137 -16 -910 0
-788 2 -880 16 -911 49 -104 186 -132 267 -56 48 45 57 73 57 179 0 54 5 115
10 135 32 115 173 164 266 93 73 -56 74 -61 74 -513 0 -381 1 -405 20 -442 31
-61 73 -85 150 -85 79 0 122 26 151 89 18 39 19 84 19 884 0 916 2 879 -56
934 -82 77 -209 56 -261 -42 -21 -39 -23 -57 -23 -174 0 -117 -3 -137 -22
-176 -26 -50 -73 -86 -125 -96 -78 -15 -170 43 -192 121 -7 26 -11 195 -11
493 0 492 1 480 -57 533 -28 26 -82 49 -112 49 -9 -1 -33 -7 -54 -15z"/>
<path d="M3413 3828 c-39 -19 -44 -53 -41 -261 4 -252 -7 -237 173 -237 181 0
170 -17 170 252 l0 210 -28 24 c-26 22 -36 24 -140 23 -62 0 -122 -5 -134 -11z"/>
<path d="M2026 3809 l-26 -20 0 -194 0 -194 26 -20 c24 -19 40 -21 146 -21
113 0 120 1 143 25 25 24 25 26 25 210 0 184 0 186 -25 210 -23 24 -30 25
-143 25 -106 0 -122 -2 -146 -21z"/>
<path d="M1322 1718 c-36 -18 -44 -68 -40 -269 4 -242 -6 -229 173 -229 180 0
169 -15 173 237 3 211 -2 242 -44 262 -32 14 -231 13 -262 -1z"/>
<path d="M2682 1667 c-21 -22 -22 -32 -22 -210 0 -172 2 -189 19 -206 27 -27
71 -34 186 -29 138 5 135 -2 135 239 0 242 10 229 -168 229 -121 0 -130 -1
-150 -23z"/>
</g>
</svg>
